<?xml version="1.0" standalone="no"?>
<!DOCTYPE svg PUBLIC "-//W3C//DTD SVG 20010904//EN"
 "http://www.w3.org/TR/2001/REC-SVG-20010904/DTD/svg10.dtd">
<svg version="1.0" xmlns="http://www.w3.org/2000/svg"
 width="700.000000pt" height="700.000000pt" viewBox="0 0 700.000000 700.000000"
 preserveAspectRatio="xMidYMid meet">
<metadata>
Created by potrace 1.14, written by Peter Selinger 2001-2017
</metadata>
<g transform="translate(0.000000,700.000000) scale(0.100000,-0.100000)"
fill="#000000" stroke="none">
<path d="M2858 5920 c-50 -9 -112 -52 -143 -98 -14 -22 -38 -94 -60 -182 -20
-80 -38 -152 -40 -160 -2 -8 -20 -80 -39 -160 -20 -80 -42 -167 -50 -195 -23
-83 -49 -196 -45 -200 7 -7 170 -47 175 -43 3 4 48 175 59 228 2 8 20 80 40
160 20 80 38 152 40 160 20 96 72 279 83 293 14 16 56 17 622 17 566 0 608 -1
622 -17 12 -15 49 -144 74 -258 2 -11 38 -155 80 -320 41 -165 77 -307 79
-315 2 -8 13 -53 25 -100 46 -184 52 -206 55 -220 2 -8 11 -44 20 -80 9 -36
18 -72 20 -80 2 -8 60 -242 130 -520 70 -278 128 -513 130 -523 2 -10 7 -27
10 -37 3 -10 8 -28 10 -39 2 -12 11 -49 20 -84 9 -34 18 -69 20 -77 2 -8 22
-89 45 -180 54 -215 71 -282 75 -300 2 -8 11 -44 20 -80 9 -36 19 -75 21 -87
2 -12 9 -34 14 -48 5 -14 7 -25 5 -25 -2 0 0 -11 5 -26 6 -14 12 -37 15 -52 3
-15 30 -126 61 -247 30 -121 57 -227 59 -235 2 -8 28 -115 59 -237 59 -234 63
-262 44 -281 -9 -9 -405 -12 -1719 -12 l-1708 0 -14 21 c-13 18 -12 31 10 117
14 53 26 104 28 112 2 8 42 170 89 360 48 190 88 354 90 365 3 11 27 110 55
220 70 277 180 721 185 748 3 12 21 87 41 167 20 80 38 152 40 160 2 8 21 87
44 175 22 88 37 163 33 167 -9 9 -165 48 -170 43 -4 -4 -208 -814 -216 -859
-2 -12 -20 -85 -41 -164 -20 -78 -38 -150 -40 -160 -2 -9 -22 -91 -45 -182
-23 -91 -43 -172 -45 -180 -2 -8 -60 -243 -129 -522 -69 -279 -126 -527 -126
-550 1 -82 56 -164 138 -205 35 -17 110 -18 1782 -18 1700 0 1746 1 1784 19
51 26 99 77 119 126 23 60 15 133 -37 340 -26 102 -49 192 -51 200 -2 8 -20
80 -40 160 -20 80 -38 152 -40 160 -2 8 -56 224 -120 480 -64 256 -118 472
-120 480 -2 8 -24 98 -50 200 -26 102 -55 219 -65 260 -10 41 -59 239 -110
440 -50 201 -93 372 -95 380 -2 8 -38 152 -80 320 -42 168 -78 312 -80 320 -2
8 -20 80 -40 160 -20 80 -38 152 -40 160 -5 23 -49 199 -90 359 -41 162 -45
172 -97 222 -68 67 -55 66 -738 66 -338 0 -632 -4 -652 -7z"/>
<path d="M1963 5421 l-81 -37 30 -69 c16 -39 36 -83 43 -100 14 -30 454 -1052
592 -1375 41 -96 117 -272 168 -390 51 -118 170 -395 265 -615 94 -220 179
-418 189 -440 10 -22 38 -85 61 -140 23 -55 53 -123 66 -152 13 -28 24 -57 24
-62 0 -17 12 -14 97 23 49 21 77 39 75 47 -1 8 -34 86 -72 174 -37 88 -118
277 -180 420 -61 143 -117 274 -125 290 -13 29 -98 226 -465 1080 -556 1291
-589 1368 -598 1376 -4 4 -44 -10 -89 -30z"/>
</g>
</svg>
