<?xml version="1.0" standalone="no"?>
<!DOCTYPE svg PUBLIC "-//W3C//DTD SVG 20010904//EN"
 "http://www.w3.org/TR/2001/REC-SVG-20010904/DTD/svg10.dtd">
<svg version="1.0" xmlns="http://www.w3.org/2000/svg"
 width="700.000000pt" height="700.000000pt" viewBox="0 0 700.000000 700.000000"
 preserveAspectRatio="xMidYMid meet">
<metadata>
Created by potrace 1.14, written by Peter Selinger 2001-2017
</metadata>
<g transform="translate(0.000000,700.000000) scale(0.100000,-0.100000)"
fill="#000000" stroke="none">
<path d="M1365 6342 c-296 -27 -547 -215 -658 -492 -52 -131 -50 -49 -51
-2325 -1 -1172 3 -2159 7 -2195 31 -256 189 -478 422 -593 39 -19 88 -40 110
-46 125 -36 134 -36 2320 -35 1177 0 2156 4 2175 8 254 50 438 177 555 385 37
66 73 162 82 216 3 17 8 48 12 70 8 51 7 4310 -2 4350 -4 17 -9 46 -12 65 -3
19 -19 68 -36 109 -100 251 -330 434 -599 477 -41 7 -4255 13 -4325 6z m4312
-226 c96 -16 217 -80 289 -154 74 -76 134 -190 150 -285 10 -58 12 -4281 2
-4337 -40 -230 -198 -398 -425 -451 -67 -15 -224 -19 -229 -5 -2 6 -6 40 -9
76 -13 157 -65 373 -125 526 -36 89 -119 255 -155 308 -14 21 -25 39 -25 42 0
16 -151 205 -230 288 -368 384 -863 602 -1385 608 -111 1 -244 -6 -304 -17 -9
-1 -38 -6 -66 -9 -73 -11 -197 -43 -300 -78 -406 -138 -768 -419 -1005 -780
-173 -261 -291 -592 -315 -881 -4 -40 -8 -77 -10 -83 -4 -14 -153 -11 -230 6
-214 45 -377 214 -419 435 -17 91 -15 4288 3 4368 48 218 214 379 433 421 65
12 4282 15 4355 2z m-1947 -3616 c429 -56 835 -282 1120 -625 57 -69 175 -257
217 -345 86 -181 159 -442 165 -595 l3 -60 -153 0 c-94 0 -156 3 -161 10 -4 5
-13 49 -19 97 -72 517 -458 971 -968 1137 -274 89 -594 89 -868 0 -506 -165
-875 -593 -965 -1117 -10 -60 -21 -114 -24 -119 -3 -4 -74 -8 -159 -8 l-153 0
1 35 c3 108 34 261 84 410 70 212 167 388 309 565 36 45 262 265 271 265 5 0
15 6 23 14 33 33 195 131 299 181 303 144 644 198 978 155z m-27 -549 c425
-74 780 -384 920 -804 29 -85 61 -242 54 -260 -3 -9 -87 -12 -320 -12 -174 0
-317 2 -319 5 -2 3 -12 30 -22 60 -73 218 -285 370 -516 370 -231 0 -443 -152
-516 -370 -10 -30 -20 -57 -22 -60 -2 -3 -147 -5 -323 -5 l-320 0 6 45 c14
107 25 152 61 255 102 287 324 540 589 669 115 57 165 73 300 101 123 25 306
27 428 6z m-77 -889 c57 -30 137 -121 146 -167 3 -19 -5 -19 -270 -20 -151 0
-275 2 -277 6 -7 11 37 84 73 122 87 92 219 115 328 59z"/>
<path d="M1573 5789 c-93 -17 -187 -93 -232 -189 l-26 -55 -1 -825 c-1 -691 1
-833 13 -876 18 -61 73 -138 128 -176 89 -62 -45 -59 2065 -56 l1925 3 45 21
c72 34 126 88 162 162 l33 67 0 840 0 840 -26 55 c-33 71 -98 136 -168 168
l-56 26 -1910 1 c-1050 1 -1929 -2 -1952 -6z m3835 -225 c64 -26 62 0 62 -864
0 -847 2 -817 -54 -854 -23 -15 -177 -16 -1918 -16 -1700 0 -1896 2 -1916 16
-54 37 -52 11 -52 852 0 554 3 788 11 811 7 18 25 41 41 51 28 17 124 18 1911
18 1568 0 1887 -2 1915 -14z"/>
<path d="M2316 5344 c-17 -17 -18 -23 -18 -196 l-1 -118 -51 0 c-133 -1 -212
-99 -136 -170 70 -65 211 -60 275 10 19 21 20 37 21 237 1 198 0 217 -17 234
-23 23 -52 24 -73 3z"/>
<path d="M2858 5338 c-12 -19 -14 -70 -14 -261 1 -224 2 -239 20 -253 26 -19
39 -18 67 4 22 19 22 21 22 248 -1 275 0 249 -19 268 -22 23 -59 20 -76 -6z"/>
<path d="M3080 5340 c-24 -24 -25 -38 -4 -68 14 -20 23 -22 110 -22 l94 0 0
-55 0 -55 -95 0 c-123 0 -123 0 -123 -168 1 -164 -2 -162 162 -161 88 1 127 5
144 15 26 17 29 55 6 78 -15 16 -26 17 -141 18 l-63 0 0 54 0 54 88 0 c132 0
132 0 132 164 0 172 6 166 -163 166 -114 0 -129 -2 -147 -20z"/>
<path d="M3517 5342 c-15 -16 -17 -49 -17 -255 0 -299 -13 -279 171 -275 117
3 132 5 145 23 12 16 14 65 14 257 -1 290 13 268 -171 268 -109 0 -128 -2
-142 -18z m202 -256 l1 -163 -55 0 -55 0 0 163 0 164 54 0 54 0 1 -164z"/>
<path d="M2109 4583 c-16 -7 -29 -18 -30 -25 -5 -103 2 -472 10 -486 14 -26
30 -27 285 -26 206 1 220 2 235 21 14 17 17 53 16 256 -1 207 -3 239 -17 254
-15 14 -46 17 -244 17 -156 1 -236 -3 -255 -11z m406 -261 c0 -89 -2 -162 -5
-163 -3 0 -76 -2 -163 -2 l-157 -2 -1 75 c-1 188 0 240 4 247 3 5 76 8 163 8
l159 0 0 -163z"/>
<path d="M2880 4588 c-10 -4 -22 -13 -26 -20 -5 -7 -9 -118 -10 -247 0 -204 2
-236 16 -254 16 -20 27 -21 246 -22 218 -1 259 4 276 29 4 6 8 117 8 247 0
183 -3 239 -14 254 -12 17 -31 18 -245 19 -128 1 -240 -2 -251 -6z m398 -268
l-3 -164 -153 -1 c-91 0 -157 4 -162 10 -6 8 -8 320 -1 320 0 0 73 0 161 0
l160 0 -2 -165z"/>
<path d="M3647 4591 c-34 -10 -37 -33 -37 -270 0 -130 4 -242 9 -250 14 -21
72 -26 295 -25 197 0 210 2 225 20 14 18 16 54 16 263 0 254 -1 258 -45 262
-42 3 -452 3 -463 0z m397 -121 c7 -24 3 -310 -3 -311 -3 0 -77 -2 -164 -2
l-157 -2 0 161 c0 88 2 163 4 165 3 2 75 4 161 4 129 0 156 -2 159 -15z"/>
<path d="M4423 4592 c-45 -7 -48 -21 -48 -270 0 -202 2 -238 16 -255 15 -19
28 -20 259 -21 281 0 269 -4 271 98 4 296 -1 420 -15 434 -13 13 -54 16 -238
16 -123 1 -233 0 -245 -2z m381 -113 c8 -8 10 -309 2 -317 -8 -7 -315 -9 -317
-2 -6 23 -3 316 2 320 10 7 306 6 313 -1z"/>
<path d="M1254 3371 c-17 -11 -36 -32 -41 -48 -6 -15 -10 -90 -9 -166 l2 -137
32 -32 c38 -38 91 -44 136 -15 44 29 49 54 47 256 -1 92 -1 93 -35 127 -40 40
-83 45 -132 15z"/>
<path d="M1815 3381 c-11 -5 -29 -19 -40 -31 -18 -19 -20 -39 -23 -157 -4
-149 -1 -169 26 -201 51 -58 143 -46 177 23 11 25 15 66 15 162 0 110 -3 133
-20 161 -28 46 -83 64 -135 43z"/>
<path d="M2334 3356 c-22 -22 -34 -44 -35 -62 -5 -169 -1 -265 15 -288 49 -76
165 -62 194 23 5 14 8 85 7 156 -1 141 -11 171 -61 193 -46 22 -83 15 -120
-22z"/>
<path d="M2905 3378 c-56 -33 -63 -56 -61 -221 l2 -138 31 -31 c51 -50 128
-42 168 18 16 26 22 119 16 288 -1 42 -59 96 -102 96 -19 0 -43 -6 -54 -12z"/>
<path d="M3453 3380 c-13 -5 -32 -24 -43 -42 -17 -29 -20 -51 -20 -166 0 -152
9 -180 64 -206 51 -24 107 -8 135 38 19 29 21 49 21 167 0 116 -3 138 -20 167
-29 47 -83 64 -137 42z"/>
<path d="M4001 3377 c-13 -6 -33 -24 -44 -39 -18 -24 -20 -42 -20 -168 1 -158
9 -181 67 -205 44 -19 85 -10 120 25 l30 29 1 141 c1 157 -8 191 -56 216 -34
17 -66 18 -98 1z"/>
<path d="M4542 3377 c-48 -27 -56 -52 -57 -191 -2 -159 5 -187 56 -215 41 -23
75 -22 115 4 42 27 47 51 47 204 l-1 145 -36 33 c-39 36 -82 43 -124 20z"/>
<path d="M5088 3375 c-49 -27 -58 -60 -58 -206 0 -148 13 -188 70 -208 53 -18
102 -1 130 44 20 32 21 46 18 180 -3 140 -4 145 -29 171 -32 32 -93 41 -131
19z"/>
<path d="M5614 3356 l-34 -34 0 -140 c0 -78 4 -152 10 -166 21 -56 117 -80
161 -40 41 37 47 63 45 204 -2 147 -8 170 -56 195 -49 25 -88 19 -126 -19z"/>
</g>
</svg>
